PathFileType	4	(X/Y/Z)	PS_ngait_og_ss11.trc	
DataRate	CameraRate	NumFrames	NumMarkers	Units	OrigDataRate	OrigDataStartFrame	OrigNumFrames	
120.00	120.00	7	39	mm	120.00	849	132	
Frame#	Time	Sternum			Neck			RShoulder			LShoulder			Xiphoid			Thoracic			RAsis			LAsis			RPsis			LPsis			LThighSuperior			LThighInferior			LThighLateral			LShankSuperior			LShankInferior			LShankLateral			RThighSuperior			RThighInferior			RThighLateral			RShankSuperior			RShankInferior			RShankLateral			RHeel			RToe			RMidfootMedial			RMidfootLateral			RHindfoot			RMidfootSuperior			RToeMedial			RToeLateral			LHeel			LToe			LMidfootMedial			LMidfootLateral			LHindfoot			LMidfootSuperior			LToeMedial			LToeLateral			Sacral			
		X1	Y1	Z1	X2	Y2	Z2	X3	Y3	Z3	X4	Y4	Z4	X5	Y5	Z5	X6	Y6	Z6	X7	Y7	Z7	X8	Y8	Z8	X9	Y9	Z9	X10	Y10	Z10	X11	Y11	Z11	X12	Y12	Z12	X13	Y13	Z13	X14	Y14	Z14	X15	Y15	Z15	X16	Y16	Z16	X17	Y17	Z17	X18	Y18	Z18	X19	Y19	Z19	X20	Y20	Z20	X21	Y21	Z21	X22	Y22	Z22	X23	Y23	Z23	X24	Y24	Z24	X25	Y25	Z25	X26	Y26	Z26	X27	Y27	Z27	X28	Y28	Z28	X29	Y29	Z29	X30	Y30	Z30	X31	Y31	Z31	X32	Y32	Z32	X33	Y33	Z33	X34	Y34	Z34	X35	Y35	Z35	X36	Y36	Z36	X37	Y37	Z37	X38	Y38	Z38	X39	Y39	Z39	

116	0.958	1132.53528	1449.31543	195.81401	969.94073	1547.21106	212.57048	1029.12146	1533.12170	368.51843	989.07611	1537.37878	72.13770	1167.06189	1289.32996	198.34761	890.48639	1329.35022	221.50354	1086.62866	1026.78271	337.76468	1083.18640	1017.23547	63.39024	895.23206	1047.25439	261.33246	888.28259	1041.76563	158.48631	1058.51709	851.72260	9.58153	1159.33020	639.50018	27.14703	1196.34448	762.85425	74.74686	1179.49475	412.96344	19.96640	1144.78918	215.55333	57.77664	1203.11243	308.58258	89.06958	1010.78125	826.25464	378.11234	988.20612	588.23779	336.34540	1093.67334	736.39056	302.39011	948.24646	431.89984	335.80786	913.67316	179.24397	286.12692	984.85120	301.96466	253.60358	813.51880	69.25578	230.91348	1130.41699	46.24797	229.64523	1030.46375	33.82275	181.14821	1030.87720	29.54287	301.28125	976.28503	31.18384	293.89642	999.42792	96.51183	233.95976	1075.22070	34.61830	183.77455	1079.49243	33.92490	287.16599	1056.14429	98.32313	121.42717	1358.99707	69.94960	57.18090	1268.69250	52.81017	126.94530	1249.45740	44.20613	13.57868	1198.74841	47.96259	30.75090	1242.80273	115.69971	77.46633	1309.46582	51.72979	116.00773	1294.03503	52.58469	13.14568	891.75732	1044.51001	209.90939 
117	0.967	1140.84656	1447.76990	196.43034	978.66687	1546.35510	212.97139	1037.28967	1531.73547	368.86090	998.22705	1536.80249	72.43758	1174.84485	1287.63684	198.92268	898.41138	1328.77649	220.60542	1093.21558	1025.67554	338.12335	1091.34766	1015.77075	63.46539	902.32208	1046.41370	260.51126	895.98389	1040.71350	157.50717	1066.12952	850.11212	9.88523	1166.25500	637.91199	28.64832	1203.40454	761.14447	76.21176	1192.78967	410.97513	21.25210	1167.57654	211.43918	58.08521	1221.61414	307.43042	89.23129	1016.18463	825.82788	377.94781	991.95551	587.95142	336.21463	1099.15637	734.02466	303.54443	950.93488	431.80670	335.78357	914.42731	179.32312	286.08835	986.49780	301.50455	253.80565	813.54944	69.15461	230.72142	1130.47351	46.16221	229.67220	1031.34351	32.76596	182.00508	1030.91211	29.44922	301.32840	976.19525	31.09089	293.85648	999.17694	95.62483	233.89981	1075.22302	33.75353	184.07166	1079.79272	34.04897	287.45224	1084.44397	90.56594	121.26932	1387.95569	75.07733	55.49614	1298.64539	54.06615	125.56217	1279.43030	45.08124	12.60448	1228.58423	45.96683	29.70549	1270.26477	115.84131	76.61243	1339.42529	54.68143	114.44282	1323.58435	55.23396	11.64108	899.15295	1043.56360	209.00922 
118	0.975	1149.36560	1446.16504	196.89734	987.48187	1545.44861	213.22427	1045.59851	1530.31018	369.20932	1007.45233	1536.20776	72.65545	1182.68018	1285.97034	199.21825	906.30499	1328.05054	219.83046	1099.80164	1024.63147	338.31256	1099.56580	1014.08307	63.25039	909.41791	1045.56738	259.50830	903.77844	1039.53687	156.27319	1073.43262	848.11511	9.96800	1172.77783	635.89856	30.45773	1210.15527	759.04803	77.45573	1205.60291	408.95847	22.51208	1189.79358	208.33148	58.14110	1239.92920	306.41632	89.53639	1021.81799	825.41821	378.01843	995.85297	587.61853	336.23801	1103.80298	732.62335	303.89978	953.59937	431.74542	335.69339	915.22833	179.38211	286.07883	988.10858	301.15814	253.78479	813.60938	69.39665	230.93420	1130.54236	46.06182	229.66676	1031.38647	32.67383	182.06296	1030.84192	29.35352	301.38458	976.22760	31.07086	293.84732	999.25677	95.54777	233.96217	1075.26282	33.65368	184.10127	1079.89355	33.96859	287.47906	1112.67969	83.65313	121.00438	1416.25354	80.81648	53.58931	1328.38818	55.95193	124.24627	1308.97070	46.05326	11.84429	1258.04456	45.60147	28.77202	1297.08911	116.62037	75.51935	1369.04321	58.35919	112.85786	1352.54626	58.10470	10.15817	906.59814	1042.55212	207.89075 
119	0.983	1157.92737	1444.43579	197.34323	996.30817	1544.50464	213.45688	1053.91797	1528.72314	369.40961	1016.78046	1535.50452	72.82854	1190.52979	1284.25012	199.61154	914.27246	1327.33679	218.93095	1106.62170	1023.64069	338.46420	1107.82288	1012.43201	63.15402	916.72308	1044.67627	258.51990	911.59583	1038.26929	155.14268	1080.71912	845.95569	10.22487	1178.94434	633.83704	32.35557	1216.88965	756.78912	78.87379	1217.82385	407.05206	23.73705	1211.70288	205.64740	58.24834	1257.75623	305.89661	89.78099	1027.50110	825.00977	378.06839	999.84814	587.27789	336.20868	1108.20422	731.54883	303.95660	956.37146	431.67361	335.62695	915.95367	179.47064	286.06970	989.75244	300.63736	253.57434	813.67700	69.49086	230.95476	1130.43823	45.94622	229.51340	1031.18457	32.90852	181.82240	1030.85229	29.31031	301.43063	976.21759	31.06113	293.85565	999.27106	95.73605	233.91273	1075.13733	33.78759	183.90665	1079.75012	33.82657	287.28574	1140.91199	77.50189	121.04185	1443.84546	87.13568	51.86798	1357.23877	58.50714	122.71021	1337.76074	48.09678	10.57025	1286.66736	45.84764	27.61807	1323.37170	118.05053	74.52470	1397.75574	62.60747	111.19762	1380.99219	61.97447	8.54274	914.15942	1041.47278	206.83130 
120	0.992	1166.53979	1442.73694	197.68875	1005.18628	1543.48547	213.57686	1062.22620	1527.21912	369.54147	1026.22559	1534.72839	72.93634	1198.50269	1282.58069	200.08980	922.27869	1326.51465	217.92458	1113.49365	1022.58472	338.56241	1116.21692	1010.76776	63.20367	924.07758	1043.66589	257.48846	919.47668	1036.83472	154.02861	1087.89990	843.72888	10.43618	1184.77795	631.49847	34.36956	1223.51831	754.46295	80.24629	1229.72351	404.86865	25.14429	1233.07776	203.61526	58.23364	1275.00281	305.55490	90.04419	1033.23792	824.51532	378.12042	1003.96570	586.91589	336.29407	1114.58398	731.41040	304.21140	959.09930	431.69501	335.70044	916.70856	179.58560	286.05536	991.64941	300.23978	253.59975	813.62964	69.56028	230.93977	1130.74414	45.85217	229.65460	1031.07324	33.04195	181.67648	1030.81409	29.19100	301.40985	976.24084	31.00511	293.88022	999.66187	95.86162	234.09367	1075.44751	33.89345	183.98984	1080.00269	33.69089	287.37128	1168.30273	72.48347	121.06886	1470.52319	93.76437	50.45793	1385.41626	61.72876	121.61251	1365.71289	50.92198	9.56095	1314.79089	46.62257	26.74493	1348.99878	120.02838	73.74538	1425.67407	67.35889	109.93237	1408.43103	66.41891	7.35930	921.77710	1040.25037	205.75854 
121	1.000	1175.12097	1441.01318	198.03014	1014.17560	1542.34460	213.66342	1070.51587	1525.62720	369.47891	1035.77649	1533.96118	72.78291	1206.62708	1280.74695	200.52399	930.39386	1325.51575	216.75919	1119.44934	1021.36444	339.04507	1124.99854	1008.76355	64.02308	930.80872	1042.50146	256.20270	927.42310	1035.53638	152.80278	1094.71802	841.05194	10.49093	1190.34399	629.08911	36.33996	1229.78418	751.68671	81.46224	1241.63745	403.25793	26.69451	1253.92480	202.01016	58.78277	1291.67944	305.62845	90.28548	1039.18152	823.87360	378.07156	1008.16064	586.45953	336.21362	1120.09338	730.46283	304.34482	962.02783	431.61530	335.65762	917.58228	179.67519	286.02322	993.41223	299.66089	253.57840	813.71704	69.63178	230.86682	1130.73877	45.69899	229.71747	1031.05493	32.92038	181.80621	1030.78992	29.11780	301.43848	976.26691	31.04292	293.90372	999.68451	95.77760	234.20221	1075.41211	33.74781	184.08704	1080.02124	33.58999	287.46619	1195.28101	68.40906	121.41366	1496.15247	100.75273	49.33564	1412.60999	65.53934	120.91660	1392.71545	54.28719	8.84463	1342.22705	47.78212	26.56068	1373.83154	122.53954	73.24087	1452.60864	72.64017	108.99739	1434.83313	71.30058	6.51971	929.11591	1039.01892	204.50275 
122	1.008	1183.75903	1439.16138	198.30130	1023.07983	1541.24622	213.46809	1078.88281	1524.04431	369.41205	1045.34985	1532.92700	72.72172	1214.81360	1278.92432	200.83932	938.48004	1324.69141	215.71387	1126.08423	1020.16925	339.40988	1133.67822	1006.90143	64.42323	938.05432	1041.23621	255.17549	935.50214	1034.10632	151.71626	1101.45813	838.42310	10.67924	1195.88708	626.58588	38.13837	1235.97217	748.95837	82.81174	1253.02478	401.31381	27.18294	1274.14832	200.78905	59.49931	1307.81665	305.93622	90.80391	1045.12500	823.23022	378.11948	1012.52234	585.99988	336.20486	1125.41577	729.00897	304.33975	965.18353	431.34479	335.61200	918.42957	179.76161	285.99109	995.31018	299.28622	253.59161	813.78717	69.76372	230.80959	1130.74402	45.62407	229.55901	1031.43542	32.52276	182.05498	1030.74988	29.04457	301.52640	977.16107	31.11059	293.97922	999.58936	95.43571	234.08289	1075.37036	33.39749	184.05881	1080.14526	33.60409	287.43033	1221.17285	65.31384	122.23817	1520.40735	107.80566	48.82120	1438.53857	69.78232	120.80384	1418.37659	57.94044	8.74538	1368.28796	49.77361	26.61975	1397.53394	125.48019	73.34438	1478.16785	78.20778	108.70184	1459.86646	76.34834	6.32489	936.77826	1037.67126	203.44588 
